# xmcd
#
# Track frame offsets: 
#        150
#        10065
#        27693
#        40741
#        48956
#        58880
#        69219
#        81601
#        93730
#        104194
#        114062
#        127218
#        140316
#        151882
#        162902
#        172694
#        182140
#        195703
#        205935
#        214896
#
# Disc length: 2995 seconds
#
# Revision: 2
# Processed by: cddbd v1.5.2PL0 Copyright (c) Steve Scherf et al.
# Submitted via: ExactAudioCopy v1.1
#
DISCID=1f0bb114
DTITLE=Various Artist - Rhythm and Blues Goes Rock 'n' Roll - CD15
DYEAR=2002
DGENRE=Blues
TTITLE0=Eddie Carroll and The Montclairs - Woo Woo Baby (mono)
TTITLE1='Guitar' Tommy Moore and The 5 J's - Your Car Machine (mono)
TTITLE2=Louis Payne Orchestra featuring Bonnie Buckner and Danny Taylor 
TTITLE2=/ That's Alright With Me (mono)
TTITLE3=Baby Wayne - That's Where It's At (mono)
TTITLE4=Stick McGhee - Meet You In The Morning (mono)
TTITLE5=Albert Collins - Collins' Shuffle (mono)
TTITLE6=Ray Snead - Let's Ball (mono)
TTITLE7=Mr. Sad Head - Sad Head Blues (mono)
TTITLE8=Charlie Brentley Orchestra featuring Clarence Jolly - Movin' O
TTITLE8=n Now (mono)
TTITLE9=The Ford Nelson Quintet - Little Annie (mono)
TTITLE10=Fats Witherspoon - Hook, Line And Sinker (mono)
TTITLE11=T.J. Fowler with Frank Taylor - What's The Matter Now (mono)
TTITLE12=Jimmy Crawford with Frank Motley's Crew - That Ain't Right (m
TTITLE12=ono)
TTITLE13=Ray Snead - Fade Away Baby (mono)
TTITLE14=Bob Williams Orchestra - Talk To Me (mono)
TTITLE15=Melvin Smith - California Baby Boy (mono)
TTITLE16=Leon Tarver - Somebody Help Me (mono)
TTITLE17=Joe Jones - Will Call (mono)
TTITLE18=Gene Parrish - Screamin' In My Sleep (mono)
TTITLE19=Herman Manzy and Orchestra - I'm Your Rockin' Man (mono)
EXTD=
EXTT0=
EXTT1=
EXTT2=
EXTT3=
EXTT4=
EXTT5=
EXTT6=
EXTT7=
EXTT8=
EXTT9=
EXTT10=
EXTT11=
EXTT12=
EXTT13=
EXTT14=
EXTT15=
EXTT16=
EXTT17=
EXTT18=
EXTT19=
PLAYORDER=
